Coordinates
version=1
nRows=5
nColumns=40
inDegrees=yes

Units are S.I. units (second, meters, Newtons, ...)
If the header above contains a line with 'inDegrees', this indicates whether rotational values are in degrees (yes) or radians (no).

endheader
time	pelvis_tilt	pelvis_list	pelvis_rotation	pelvis_tx	pelvis_ty	pelvis_tz	hip_flexion_r	hip_adduction_r	hip_rotation_r	knee_angle_r	knee_angle_r_beta	ankle_angle_r	subtalar_angle_r	mtp_angle_r	hip_flexion_l	hip_adduction_l	hip_rotation_l	knee_angle_l	knee_angle_l_beta	ankle_angle_l	subtalar_angle_l	mtp_angle_l	lumbar_extension	lumbar_bending	lumbar_rotation	arm_flex_r	arm_add_r	arm_rot_r	elbow_flex_r	pro_sup_r	wrist_flex_r	wrist_dev_r	arm_flex_l	arm_add_l	arm_rot_l	elbow_flex_l	pro_sup_l	wrist_flex_l	wrist_dev_l
      7.50000000000000000000	      6.27044025574414831681	     -3.92704670084613116643	   -168.22599929254019457403	      0.32829999382453889378	      0.70970585681632447628	     -0.61326156747590931939	     64.23975512645360197439	    -21.16903911820170591795	      3.32156580377633270373	     79.86457291579851869301	      1.39389975307977209695	     26.44168869210202998943	      0.00000000000000000000	      0.00000000000000000000	     64.86798070871850541153	     -1.10848557938468617046	      1.36905781616874944184	     77.27600532788427756259	      1.34872072576026091895	     20.34919589934823136446	      0.00000000000000000000	      0.00000000000000000000	    -55.56606961092116137024	      7.39025454919246360674	    -13.02399674800083140269	      0.00000000000000000000	     -9.49236951362397363141	      0.00000000000000000000	     70.03470984065967286369	     46.54892630056270519390	      0.00000000000000000000	      0.00000000000000000000	      0.00000000000000000000	     -9.49236951362397363141	      0.00000000000000000000	     70.03470984065967286369	     46.54892630056270519390	      0.00000000000000000000	      0.00000000000000000000
      7.50499999999999989342	      6.37602289544405032018	     -3.90754189261313111814	   -168.14961714765254896520	      0.32801349090928400010	      0.71003265814974825254	     -0.61304347242236345572	     64.24907462514049427682	    -21.26469634977224387740	      3.23300072530157045492	     79.79067238269391282302	      1.39260994545811778167	     26.53234099561213099605	      0.00000000000000000000	      0.00000000000000000000	     64.90280087786044305176	     -1.00176020767242768272	      1.43279252578706906007	     77.18068634290840179801	      1.34705709563277298280	     20.39497475617150712424	      0.00000000000000000000	      0.00000000000000000000	    -55.44951809158773414765	      7.46979664310033175667	    -12.96492724253666928291	      0.00000000000000000000	     -9.52201438918596920757	      0.00000000000000000000	     70.08490027913785525016	     46.51110816059753716445	      0.00000000000000000000	      0.00000000000000000000	      0.00000000000000000000	     -9.52201438918596920757	      0.00000000000000000000	     70.08490027913785525016	     46.51110816059753716445	      0.00000000000000000000	      0.00000000000000000000
      7.50999999999999978684	      6.39805865086877734171	     -4.04141348926517807172	   -168.22663210248620657694	      0.32759012511095803033	      0.71054167411276158983	     -0.61328761691018807145	     64.29495747985687614801	    -21.27854539628401653317	      3.36934076769772294924	     79.79617012756648364302	      1.39270589920757870139	     26.40071047301911022487	      0.00000000000000000000	      0.00000000000000000000	     64.77487817652824730885	     -1.03731375386724655741	      1.23439903285003138578	     77.06742384716838500935	      1.34508029216308355736	     20.40569536210418277733	      0.00000000000000000000	      0.00000000000000000000	    -55.48864877329928191330	      7.30618585275721521555	    -13.22494781857738921360	      0.00000000000000000000	     -9.58474541562459414479	      0.00000000000000000000	     70.19123852359321347194	     46.43046287696869001138	      0.00000000000000000000	      0.00000000000000000000	      0.00000000000000000000	     -9.58474541562459414479	      0.00000000000000000000	     70.19123852359321347194	     46.43046287696869001138	      0.00000000000000000000	      0.00000000000000000000
      7.51499999999999968026	      6.45830210494051470960	     -3.94023773919012221256	   -168.22520809751802062237	      0.32743275062569549005	      0.71100016375195695950	     -0.61302055184103509955	     64.24320584933154520968	    -21.24961498261261994003	      3.24774473119164985846	     79.65740665375463436249	      1.39028401970805703947	     26.36032653219366750363	      0.00000000000000000000	      0.00000000000000000000	     64.79757788586634603689	     -1.05159753144866319197	      1.32979428222556661510	     76.98930278441847008253	      1.34371682240294032518	     20.39235136727398156609	      0.00000000000000000000	      0.00000000000000000000	    -55.45470753202574343277	      7.41640117344225124896	    -13.14310267744490445807	      0.00000000000000000000	     -9.61670072219002847191	      0.00000000000000000000	     70.24419315659871188018	     46.39318143646116254786	      0.00000000000000000000	      0.00000000000000000000	      0.00000000000000000000	     -9.61670072219002847191	      0.00000000000000000000	     70.24419315659871188018	     46.39318143646116254786	      0.00000000000000000000	      0.00000000000000000000
      7.51999999999999957367	      6.47620975493897077513	     -3.82485248268861877108	   -168.24561750178600050276	      0.32735019196805031916	      0.71150896264729834861	     -0.61278867634914679918	     64.14101342375022341002	    -21.17936078077446637735	      3.11444079357658765161	     79.51186842731515014293	      1.38774389846917500790	     26.34453800173723081457	      0.00000000000000000000	      0.00000000000000000000	     64.78335238643624904853	     -1.06574885122627982526	      1.47408312891069614992	     76.91629022498725021251	      1.34244251284555771164	     20.38778939470197570927	      0.00000000000000000000	      0.00000000000000000000	    -55.48028397912259634950	      7.52253984034664924252	    -13.06710026990323392226	      0.00000000000000000000	     -9.64794072494542653828	      0.00000000000000000000	     70.29599156954263605712	     46.35658770673995832112	      0.00000000000000000000	      0.00000000000000000000	      0.00000000000000000000	     -9.64794072494542653828	      0.00000000000000000000	     70.29599156954263605712	     46.35658770673995832112	      0.00000000000000000000	      0.00000000000000000000
